<?xml version="1.0" encoding="UTF-8"?>
<!DOCTYPE svg PUBLIC "-//W3C//DTD SVG 1.1//EN" "http://www.w3.org/Graphics/SVG/1.1/DTD/svg11.dtd">
<svg xmlns="http://www.w3.org/2000/svg" version="1.1" width="512px" height="512px" style="shape-rendering:geometricPrecision; text-rendering:geometricPrecision; image-rendering:optimizeQuality; fill-rule:evenodd; clip-rule:evenodd" xmlns:xlink="http://www.w3.org/1999/xlink">
<g><path style="opacity:0.922" fill="#6b7b8b" d="M 307.5,8.5 C 312.439,7.3519 315.939,9.01857 318,13.5C 320.763,24.7209 323.597,35.8876 326.5,47C 326.042,49.831 324.708,52.1643 322.5,54C 312.167,57 301.833,60 291.5,63C 282.505,64.6733 279.005,61.1733 281,52.5C 282.214,50.9512 283.714,49.7845 285.5,49C 290.27,47.7987 294.937,46.2987 299.5,44.5C 263.519,27.6643 230.186,31.831 199.5,57C 194.713,62.6075 189.713,67.9408 184.5,73C 176.878,74.3781 173.378,71.2115 174,63.5C 198.371,31.2393 230.871,16.7393 271.5,20C 283.665,21.4147 295.165,24.9147 306,30.5C 305.428,25.6911 304.595,20.8578 303.5,16C 303.43,12.6335 304.763,10.1335 307.5,8.5 Z"/></g>
<g><path style="opacity:0.92" fill="#6b7b8b" d="M 83.5,52.5 C 123.882,51.7665 152.049,69.7665 168,106.5C 179.953,147.979 168.453,181.146 133.5,206C 102.012,222.447 71.3456,221.114 41.5,202C 9.31973,174.784 0.486401,141.284 15,101.5C 29.0826,72.9152 51.916,56.5819 83.5,52.5 Z M 84.5,67.5 C 117.844,67.0449 141.01,82.0449 154,112.5C 163.121,144.468 154.621,170.635 128.5,191C 94.1792,210.141 63.6792,205.308 37,176.5C 20.9411,152.497 19.2745,127.497 32,101.5C 44.146,81.8463 61.646,70.513 84.5,67.5 Z"/></g>
<g><path style="opacity:0.96" fill="#6b7b8b" d="M 343.5,52.5 C 394.834,52.3333 446.168,52.5 497.5,53C 499.002,53.5831 500.335,54.4164 501.5,55.5C 502.662,108.459 502.829,161.459 502,214.5C 501.5,215 501,215.5 500.5,216C 447.916,217.658 395.25,217.991 342.5,217C 341.069,216.535 339.903,215.701 339,214.5C 338.333,161.833 338.333,109.167 339,56.5C 339.907,54.3909 341.407,53.0576 343.5,52.5 Z M 352.5,67.5 C 366.5,67.5 380.5,67.5 394.5,67.5C 394.043,79.2682 394.543,90.9349 396,102.5C 397.171,103.893 398.671,104.727 400.5,105C 414.167,105.667 427.833,105.667 441.5,105C 442.931,104.535 444.097,103.701 445,102.5C 446.457,90.9349 446.957,79.2682 446.5,67.5C 460.5,67.5 474.5,67.5 488.5,67.5C 488.5,112.5 488.5,157.5 488.5,202.5C 443.167,202.5 397.833,202.5 352.5,202.5C 352.5,157.5 352.5,112.5 352.5,67.5 Z M 409.5,67.5 C 416.833,67.5 424.167,67.5 431.5,67.5C 431.5,75.1667 431.5,82.8333 431.5,90.5C 424.167,90.5 416.833,90.5 409.5,90.5C 409.5,82.8333 409.5,75.1667 409.5,67.5 Z"/></g>
<g><path style="opacity:0.919" fill="#6b7b8b" d="M 89.5,80.5 C 96.9025,81.7263 99.5692,86.0597 97.5,93.5C 104.072,94.5358 109.572,97.5358 114,102.5C 117.33,109.136 115.497,113.469 108.5,115.5C 104.621,115.124 101.621,113.291 99.5,110C 92.6007,106.25 86.1007,106.75 80,111.5C 76.439,118.48 78.2723,123.647 85.5,127C 99.9839,126.65 110.484,132.817 117,145.5C 120.38,161.745 114.213,172.412 98.5,177.5C 99.6707,186.161 96.0041,189.994 87.5,189C 84.1108,186.381 82.6108,182.881 83,178.5C 76.4839,176.574 71.1505,172.907 67,167.5C 65.1667,158.667 68.6667,155.167 77.5,157C 83.9147,164.447 91.2481,165.78 99.5,161C 105.012,153.849 103.679,148.183 95.5,144C 81.0161,144.35 70.5161,138.183 64,125.5C 60.6202,109.255 66.7868,98.588 82.5,93.5C 81.5068,87.14 83.8402,82.8067 89.5,80.5 Z"/></g>
<g><path style="opacity:0.926" fill="#6b7b8b" d="M 180.5,173.5 C 193.171,173.333 205.838,173.5 218.5,174C 222.5,178.333 222.5,182.667 218.5,187C 212.23,188.152 205.897,188.818 199.5,189C 227.884,213.177 259.55,218.51 294.5,205C 302.003,201.418 309.003,197.085 315.5,192C 324.495,190.327 327.995,193.827 326,202.5C 306.87,218.603 284.703,226.936 259.5,227.5C 233.159,227.001 209.992,218.335 190,201.5C 188.717,206.657 188.05,211.99 188,217.5C 183.997,222.42 179.663,222.753 175,218.5C 173.993,215.425 173.493,212.258 173.5,209C 174.152,198.842 174.652,188.675 175,178.5C 176.107,175.887 177.94,174.22 180.5,173.5 Z"/></g>
<g><path style="opacity:0.936" fill="#6b7b8b" d="M 13.5,247.5 C 174.834,247.333 336.167,247.5 497.5,248C 499.492,248.574 500.992,249.741 502,251.5C 501.29,348.113 459.79,421.28 377.5,471C 310.977,506.381 241.977,512.047 170.5,488C 82.2654,452.43 29.0987,387.93 11,294.5C 8.77202,280.239 8.10535,265.906 9,251.5C 9.90659,249.391 11.4066,248.058 13.5,247.5 Z M 23.5,262.5 C 58.1667,262.5 92.8333,262.5 127.5,262.5C 127.389,305.562 134.389,347.395 148.5,388C 126.077,393.363 104.244,400.53 83,409.5C 45.1314,368.116 25.298,319.116 23.5,262.5 Z M 142.5,262.5 C 177.833,262.5 213.167,262.5 248.5,262.5C 248.5,300.833 248.5,339.167 248.5,377.5C 220.407,377.554 192.574,380.221 165,385.5C 164.5,385.167 164,384.833 163.5,384.5C 149.375,345.087 142.375,304.42 142.5,262.5 Z M 262.5,262.5 C 297.833,262.5 333.167,262.5 368.5,262.5C 368.625,304.418 361.625,345.084 347.5,384.5C 347.167,384.833 346.833,385.167 346.5,385.5C 318.763,380.251 290.763,377.584 262.5,377.5C 262.5,339.167 262.5,300.833 262.5,262.5 Z M 383.5,262.5 C 418.167,262.5 452.833,262.5 487.5,262.5C 485.609,318.88 465.942,367.88 428.5,409.5C 407.051,400.628 385.051,393.461 362.5,388C 376.611,347.393 383.611,305.559 383.5,262.5 Z M 227.5,392.5 C 234.5,392.5 241.5,392.5 248.5,392.5C 248.5,421.167 248.5,449.833 248.5,478.5C 233.683,476.188 220.683,470.021 209.5,460C 192.415,442.737 179.082,422.904 169.5,400.5C 177.342,398.307 185.342,396.807 193.5,396C 204.988,394.851 216.321,393.685 227.5,392.5 Z M 262.5,392.5 C 289.152,392.407 315.485,395.074 341.5,400.5C 331.918,422.904 318.585,442.737 301.5,460C 290.317,470.021 277.317,476.188 262.5,478.5C 262.5,449.833 262.5,421.167 262.5,392.5 Z M 152.5,402.5 C 153.497,402.47 154.164,402.97 154.5,404C 165.392,431.536 181.725,455.202 203.5,475C 207.898,478.394 212.565,481.394 217.5,484C 169.668,476.084 128.335,455.417 93.5,422C 112.672,413.776 132.339,407.276 152.5,402.5 Z M 356.5,402.5 C 377.539,406.902 397.872,413.402 417.5,422C 382.665,455.417 341.332,476.084 293.5,484C 305.825,476.681 316.658,467.515 326,456.5C 339.009,440.154 349.175,422.154 356.5,402.5 Z"/></g>
</svg>
