<?xml version="1.0" encoding="UTF-8"?>
<!DOCTYPE svg PUBLIC "-//W3C//DTD SVG 1.1//EN" "http://www.w3.org/Graphics/SVG/1.1/DTD/svg11.dtd">
<svg xmlns="http://www.w3.org/2000/svg" version="1.1" width="512px" height="512px" style="shape-rendering:geometricPrecision; text-rendering:geometricPrecision; image-rendering:optimizeQuality; fill-rule:evenodd; clip-rule:evenodd" xmlns:xlink="http://www.w3.org/1999/xlink">
<g><path style="opacity:0.917" fill="#6B7B8B" d="M 447.5,15.5 C 462.93,15.0318 478.263,15.5318 493.5,17C 494.126,17.7504 494.626,18.5838 495,19.5C 495.5,34.1629 495.667,48.8295 495.5,63.5C 490.167,63.5 484.833,63.5 479.5,63.5C 479.666,57.1579 479.5,50.8246 479,44.5C 451.833,71.6667 424.667,98.8333 397.5,126C 393.5,128 389.5,128 385.5,126C 363.653,103.986 341.653,82.1528 319.5,60.5C 289.347,90.1529 259.347,119.986 229.5,150C 225.5,152 221.5,152 217.5,150C 200.986,133.319 184.319,116.819 167.5,100.5C 132.347,135.153 97.347,169.986 62.5,205C 61.8333,205.667 61.1667,205.667 60.5,205C 57,201.5 53.5,198 50,194.5C 49.3333,193.833 49.3333,193.167 50,192.5C 87.5277,154.639 125.361,117.139 163.5,80C 166.964,79.1834 170.298,79.5167 173.5,81C 190.014,97.6807 206.681,114.181 223.5,130.5C 253.653,100.847 283.653,71.0138 313.5,41C 317.5,39 321.5,39 325.5,41C 347.347,63.0139 369.347,84.8472 391.5,106.5C 416.653,81.8472 441.653,57.0138 466.5,32C 460.175,31.5005 453.842,31.3338 447.5,31.5C 447.5,26.1667 447.5,20.8333 447.5,15.5 Z"/></g>
<g><path style="opacity:0.995" fill="#6B7B8B" d="M 379.5,151.5 C 392.837,151.333 406.171,151.5 419.5,152C 421.333,152.5 422.5,153.667 423,155.5C 423.667,198.167 423.667,240.833 423,283.5C 422.5,285.333 421.333,286.5 419.5,287C 406.167,287.667 392.833,287.667 379.5,287C 377.667,286.5 376.5,285.333 376,283.5C 375.333,240.833 375.333,198.167 376,155.5C 376.69,153.65 377.856,152.316 379.5,151.5 Z M 391.5,167.5 C 396.833,167.5 402.167,167.5 407.5,167.5C 407.5,202.167 407.5,236.833 407.5,271.5C 402.167,271.5 396.833,271.5 391.5,271.5C 391.5,236.833 391.5,202.167 391.5,167.5 Z"/></g>
<g><path style="opacity:0.994" fill="#6B7B8B" d="M 235.5,167.5 C 248.837,167.333 262.171,167.5 275.5,168C 277.333,168.5 278.5,169.667 279,171.5C 279.667,208.833 279.667,246.167 279,283.5C 278.5,285.333 277.333,286.5 275.5,287C 262.167,287.667 248.833,287.667 235.5,287C 233.667,286.5 232.5,285.333 232,283.5C 231.333,246.167 231.333,208.833 232,171.5C 232.69,169.65 233.856,168.316 235.5,167.5 Z M 247.5,183.5 C 252.833,183.5 258.167,183.5 263.5,183.5C 263.5,212.833 263.5,242.167 263.5,271.5C 258.167,271.5 252.833,271.5 247.5,271.5C 247.5,242.167 247.5,212.833 247.5,183.5 Z"/></g>
<g><path style="opacity:0.993" fill="#6B7B8B" d="M 307.5,191.5 C 320.837,191.333 334.171,191.5 347.5,192C 349.333,192.5 350.5,193.667 351,195.5C 351.667,224.833 351.667,254.167 351,283.5C 350.5,285.333 349.333,286.5 347.5,287C 334.167,287.667 320.833,287.667 307.5,287C 305.667,286.5 304.5,285.333 304,283.5C 303.333,254.167 303.333,224.833 304,195.5C 304.69,193.65 305.856,192.316 307.5,191.5 Z M 319.5,207.5 C 324.833,207.5 330.167,207.5 335.5,207.5C 335.5,228.833 335.5,250.167 335.5,271.5C 330.167,271.5 324.833,271.5 319.5,271.5C 319.5,250.167 319.5,228.833 319.5,207.5 Z"/></g>
<g><path style="opacity:0.99" fill="#6B7B8B" d="M 163.5,223.5 C 176.837,223.333 190.171,223.5 203.5,224C 204.416,224.374 205.25,224.874 206,225.5C 207.143,235.405 207.643,245.405 207.5,255.5C 207.333,264.833 207.167,274.167 207,283.5C 206.626,284.416 206.126,285.25 205.5,286C 198.267,287.133 190.934,287.633 183.5,287.5C 176.833,287.333 170.167,287.167 163.5,287C 162.584,286.626 161.75,286.126 161,285.5C 159.359,266.257 159.025,246.923 160,227.5C 160.69,225.65 161.856,224.316 163.5,223.5 Z M 175.5,239.5 C 180.833,239.5 186.167,239.5 191.5,239.5C 191.5,250.167 191.5,260.833 191.5,271.5C 186.167,271.5 180.833,271.5 175.5,271.5C 175.5,260.833 175.5,250.167 175.5,239.5 Z"/></g>
<g><path style="opacity:0.933" fill="#6B7B8B" d="M 457.5,290.5 C 475.176,290.717 487.676,298.717 495,314.5C 496.808,323.284 495.142,331.284 490,338.5C 434.586,376.124 379.086,413.624 323.5,451C 304.949,462.093 284.949,466.093 263.5,463C 228.658,459.24 193.825,455.406 159,451.5C 148.684,452.796 138.518,454.796 128.5,457.5C 128.096,463.188 128.763,468.855 130.5,474.5C 129.95,477.773 128.283,480.273 125.5,482C 103.602,486.712 81.7689,491.545 60,496.5C 56.4947,496.085 53.8281,494.419 52,491.5C 39.7454,434.894 27.7454,378.227 16,321.5C 15.3333,318.167 15.3333,314.833 16,311.5C 17.1094,309.185 18.9427,307.685 21.5,307C 41.8333,302.667 62.1667,298.333 82.5,294C 86.7929,292.798 90.2929,293.965 93,297.5C 94.7273,305.978 96.8939,314.312 99.5,322.5C 126.099,305.345 154.766,300.845 185.5,309C 190.243,310.47 194.909,312.136 199.5,314C 216.658,322.745 233.658,331.745 250.5,341C 256.833,344.333 263.167,344.333 269.5,341C 294.099,327.867 319.099,315.534 344.5,304C 363.544,300.348 379.378,305.848 392,320.5C 409.407,311.547 426.907,302.713 444.5,294C 448.86,292.417 453.194,291.25 457.5,290.5 Z M 457.5,307.5 C 465.319,307.66 471.819,310.66 477,316.5C 479.587,321.413 478.753,325.58 474.5,329C 418.438,366.726 362.105,404.059 305.5,441C 292.304,446.178 278.638,447.845 264.5,446C 229.349,442.02 194.182,438.187 159,434.5C 147.649,435.475 136.482,437.475 125.5,440.5C 124.833,440.167 124.167,439.833 123.5,439.5C 116.076,406.876 109.243,374.209 103,341.5C 129.747,320.97 158.914,316.803 190.5,329C 209.167,338.667 227.833,348.333 246.5,358C 257.42,361.488 268.087,360.821 278.5,356C 300.5,344.667 322.5,333.333 344.5,322C 359.624,317.04 371.457,321.207 380,334.5C 381.293,338.582 380.126,341.749 376.5,344C 346.002,361.748 315.668,379.748 285.5,398C 272.652,404.864 258.986,407.53 244.5,406C 214.786,399.321 185.119,392.488 155.5,385.5C 154.482,390.904 153.149,396.238 151.5,401.5C 179.405,408.643 207.405,415.476 235.5,422C 258.319,425.962 279.652,421.962 299.5,410C 329.5,392 359.5,374 389.5,356C 394.784,350.595 397.784,344.095 398.5,336.5C 418.177,326.494 437.843,316.827 457.5,307.5 Z M 75.5,312.5 C 76.8333,312.5 78.1667,312.5 79.5,312.5C 89.716,363.746 100.383,414.913 111.5,466C 111.095,466.945 110.428,467.612 109.5,468C 95.2688,471.045 81.1021,474.212 67,477.5C 55.653,425.937 44.4864,374.27 33.5,322.5C 47.6151,319.137 61.6151,315.803 75.5,312.5 Z"/></g>
<g><path style="opacity:0.882" fill="#6B7B8B" d="M 62.5,330.5 C 64.4672,330.261 66.3005,330.594 68,331.5C 69.0451,336.399 70.2117,341.232 71.5,346C 66.7771,347.545 61.9438,348.712 57,349.5C 55.6739,349.245 54.6739,348.578 54,347.5C 52.3634,342.86 51.8634,338.193 52.5,333.5C 55.9535,332.487 59.2869,331.487 62.5,330.5 Z"/></g>
</svg>
