<?xml version="1.0" encoding="UTF-8"?>
<!DOCTYPE svg PUBLIC "-//W3C//DTD SVG 1.1//EN" "http://www.w3.org/Graphics/SVG/1.1/DTD/svg11.dtd">
<svg xmlns="http://www.w3.org/2000/svg" version="1.1" width="512px" height="512px" style="shape-rendering:geometricPrecision; text-rendering:geometricPrecision; image-rendering:optimizeQuality; fill-rule:evenodd; clip-rule:evenodd" xmlns:xlink="http://www.w3.org/1999/xlink">
<g><path style="opacity:0.928" fill="#6b7b8b" d="M 150.5,3.5 C 196.109,3.11855 228.109,23.6185 246.5,65C 260.775,112.745 247.775,151.079 207.5,180C 174.162,197.974 140.829,197.974 107.5,180C 69.4994,153.687 55.6661,117.853 66,72.5C 75.9779,40.5215 96.8113,19.0215 128.5,8C 135.882,6.02413 143.216,4.52413 150.5,3.5 Z M 148.5,20.5 C 188.979,19.3032 216.812,37.3032 232,74.5C 242.159,118.341 227.326,150.508 187.5,171C 147.842,184.335 115.675,174.169 91,140.5C 76.4585,114.174 75.7919,87.5073 89,60.5C 102.72,38.0579 122.553,24.7246 148.5,20.5 Z"/></g>
<g><path style="opacity:0.929" fill="#6b7b8b" d="M 153.5,44.5 C 162.5,43.5 166.5,47.5 165.5,56.5C 170.959,56.1033 176.292,56.6033 181.5,58C 185.926,63.4414 185.259,68.1081 179.5,72C 171.167,72.3333 162.833,72.6667 154.5,73C 148.822,74.8574 146.655,78.6907 148,84.5C 149.167,87 151,88.8333 153.5,90C 174.444,89.6102 184.61,99.7769 184,120.5C 181.566,130.103 175.733,136.769 166.5,140.5C 165.682,143.107 165.182,145.774 165,148.5C 160.486,154.747 155.486,155.08 150,149.5C 149.503,146.854 149.336,144.187 149.5,141.5C 144.07,141.839 138.736,141.339 133.5,140C 130.197,136.205 129.697,132.038 132,127.5C 133.419,126.54 134.919,125.707 136.5,125C 144.833,124.667 153.167,124.333 161.5,124C 168.044,120.223 169.044,115.39 164.5,109.5C 156.678,108.163 149.011,105.996 141.5,103C 127.194,89.3137 126.861,75.3137 140.5,61C 143.309,59.2589 146.309,58.0922 149.5,57.5C 148.535,52.3172 149.868,47.9839 153.5,44.5 Z"/></g>
<g><path style="opacity:0.925" fill="#6b7b8b" d="M 465.5,120.5 C 468.85,120.335 472.183,120.502 475.5,121C 477.815,122.109 479.315,123.943 480,126.5C 480.667,143.167 480.667,159.833 480,176.5C 476.133,183.089 471.133,184.089 465,179.5C 463.722,170.601 463.055,161.601 463,152.5C 432.333,189.833 401.667,227.167 371,264.5C 367.662,267.318 363.829,268.151 359.5,267C 325.333,251.833 291.167,236.667 257,221.5C 221.918,246.628 187.084,272.128 152.5,298C 150.722,298.704 148.888,299.204 147,299.5C 141.685,297.526 136.852,294.692 132.5,291C 99,266.167 65.5,241.333 32,216.5C 29.3817,205.454 33.5483,201.621 44.5,205C 78.9479,229.781 113.115,254.947 147,280.5C 181.833,255 216.667,229.5 251.5,204C 254.167,203.333 256.833,203.333 259.5,204C 293.434,218.977 327.268,234.143 361,249.5C 391.286,213.092 421.453,176.592 451.5,140C 443.31,140.243 435.144,141.076 427,142.5C 418.86,140.887 416.527,136.221 420,128.5C 420.903,127.299 422.069,126.465 423.5,126C 437.666,124.313 451.666,122.48 465.5,120.5 Z"/></g>
<g><path style="opacity:0.927" fill="#6b7b8b" d="M 447.5,216.5 C 463.503,216.333 479.503,216.5 495.5,217C 502.01,219.167 505.843,223.667 507,230.5C 507.667,318.167 507.667,405.833 507,493.5C 505.167,500.667 500.667,505.167 493.5,507C 479.167,507.667 464.833,507.667 450.5,507C 443.738,505.237 439.238,501.07 437,494.5C 436.333,406.167 436.333,317.833 437,229.5C 438.534,223.477 442.034,219.144 447.5,216.5 Z M 453.5,232.5 C 465.833,232.5 478.167,232.5 490.5,232.5C 490.5,318.5 490.5,404.5 490.5,490.5C 478.167,490.5 465.833,490.5 453.5,490.5C 453.5,404.5 453.5,318.5 453.5,232.5 Z"/></g>
<g><path style="opacity:0.924" fill="#6b7b8b" d="M 19.5,273.5 C 34.2168,273.087 48.8835,273.587 63.5,275C 68.7575,277.256 72.2575,281.09 74,286.5C 74.6667,355.833 74.6667,425.167 74,494.5C 71.762,501.07 67.262,505.237 60.5,507C 46.1667,507.667 31.8333,507.667 17.5,507C 10.3333,505.167 5.83333,500.667 4,493.5C 3.33333,424.833 3.33333,356.167 4,287.5C 6.24196,279.417 11.4086,274.751 19.5,273.5 Z M 20.5,290.5 C 32.8333,290.5 45.1667,290.5 57.5,290.5C 57.5,357.167 57.5,423.833 57.5,490.5C 45.1667,490.5 32.8333,490.5 20.5,490.5C 20.5,423.833 20.5,357.167 20.5,290.5 Z"/></g>
<g><path style="opacity:0.968" fill="#6b7b8b" d="M 236.5,273.5 C 250.884,273.089 265.217,273.589 279.5,275C 284.308,277.141 287.808,280.641 290,285.5C 290.667,355.5 290.667,425.5 290,495.5C 287.833,502.01 283.333,505.843 276.5,507C 262.5,507.667 248.5,507.667 234.5,507C 227.667,505.843 223.167,502.01 221,495.5C 220.333,425.5 220.333,355.5 221,285.5C 224.083,278.559 229.25,274.559 236.5,273.5 Z M 237.5,290.5 C 249.747,290.178 261.914,290.512 274,291.5C 274.5,357.832 274.667,424.166 274.5,490.5C 261.833,490.5 249.167,490.5 236.5,490.5C 236.17,423.762 236.504,357.096 237.5,290.5 Z"/></g>
<g><path style="opacity:0.944" fill="#6b7b8b" d="M 340.5,307.5 C 355.837,307.333 371.17,307.5 386.5,308C 393.517,310.352 397.684,315.185 399,322.5C 399.667,379.167 399.667,435.833 399,492.5C 397.5,500.667 392.667,505.5 384.5,507C 370.5,507.667 356.5,507.667 342.5,507C 336.191,505.362 331.691,501.529 329,495.5C 328.333,436.833 328.333,378.167 329,319.5C 330.993,313.675 334.826,309.675 340.5,307.5 Z M 345.5,324.5 C 357.833,324.5 370.167,324.5 382.5,324.5C 382.5,379.833 382.5,435.167 382.5,490.5C 369.92,490.822 357.42,490.489 345,489.5C 344.171,434.429 344.338,379.429 345.5,324.5 Z"/></g>
<g><path style="opacity:0.943" fill="#6b7b8b" d="M 127.5,333.5 C 140.837,333.333 154.171,333.5 167.5,334C 174.815,335.316 179.648,339.483 182,346.5C 182.667,396.167 182.667,445.833 182,495.5C 179.309,501.529 174.809,505.362 168.5,507C 154.167,507.667 139.833,507.667 125.5,507C 117.886,505.053 113.386,500.22 112,492.5C 111.333,444.833 111.333,397.167 112,349.5C 113.346,340.322 118.513,334.989 127.5,333.5 Z M 128.5,350.5 C 141.08,350.178 153.58,350.511 166,351.5C 166.667,397.5 166.667,443.5 166,489.5C 153.58,490.489 141.08,490.822 128.5,490.5C 128.5,443.833 128.5,397.167 128.5,350.5 Z"/></g>
</svg>
