<?xml version="1.0" encoding="UTF-8"?>
<!DOCTYPE svg PUBLIC "-//W3C//DTD SVG 1.1//EN" "http://www.w3.org/Graphics/SVG/1.1/DTD/svg11.dtd">
<svg xmlns="http://www.w3.org/2000/svg" version="1.1" width="512px" height="512px" style="shape-rendering:geometricPrecision; text-rendering:geometricPrecision; image-rendering:optimizeQuality; fill-rule:evenodd; clip-rule:evenodd" xmlns:xlink="http://www.w3.org/1999/xlink">
<g><path style="opacity:0.932" fill="#6b7b8b" d="M 479.5,-0.5 C 486.167,-0.5 492.833,-0.5 499.5,-0.5C 504.5,2.5 508.5,6.5 511.5,11.5C 511.5,18.5 511.5,25.5 511.5,32.5C 509.881,47.6714 508.381,63.0048 507,78.5C 502.365,90.7383 493.532,95.5717 480.5,93C 475.334,90.8441 471.001,87.5108 467.5,83C 466.833,82.3333 466.167,82.3333 465.5,83C 440.167,108.333 414.833,133.667 389.5,159C 372.953,172.185 355.286,173.851 336.5,164C 321.348,149.682 306.348,135.182 291.5,120.5C 248.347,163.153 205.347,205.986 162.5,249C 144.25,260.595 126.25,260.261 108.5,248C 100.667,240.167 92.8333,232.333 85,224.5C 70.8333,238.667 56.6667,252.833 42.5,267C 23.7338,277.872 9.40044,273.705 -0.5,254.5C -0.5,249.833 -0.5,245.167 -0.5,240.5C 0.699136,237.437 2.19914,234.437 4,231.5C 20.8623,214.972 37.3623,198.138 53.5,181C 71.8198,165.896 91.1532,164.563 111.5,177C 119.667,185.167 127.833,193.333 136,201.5C 178.833,158.667 221.667,115.833 264.5,73C 281.09,62.4675 298.09,61.8009 315.5,71C 330.138,84.6374 344.471,98.6374 358.5,113C 359.167,113.667 359.833,113.667 360.5,113C 383,90.5 405.5,68 428,45.5C 426.593,42.0548 424.259,39.0548 421,36.5C 415.232,25.5196 416.732,15.6862 425.5,7C 427.717,5.72457 430.051,4.72457 432.5,4C 448.324,2.56764 463.991,1.06764 479.5,-0.5 Z M 480.5,17.5 C 484.833,17.5 489.167,17.5 493.5,17.5C 492.637,36.5511 491.137,55.5511 489,74.5C 487.951,75.5171 486.784,75.6838 485.5,75C 480.801,69.9664 475.801,65.2998 470.5,61C 467.5,60.3333 464.5,60.3333 461.5,61C 432.472,90.3615 403.139,119.361 373.5,148C 364.982,153.304 356.316,153.637 347.5,149C 332.529,135.029 317.862,120.696 303.5,106C 296.08,100.488 288.413,100.154 280.5,105C 236.806,149.028 192.806,192.694 148.5,236C 138.76,240.989 129.427,240.323 120.5,234C 111.804,224.969 102.804,216.303 93.5,208C 87.0226,205.781 80.6893,206.114 74.5,209C 59.8333,223.667 45.1667,238.333 30.5,253C 21.4056,256.235 17.2389,253.068 18,243.5C 34.529,227.305 50.6957,210.805 66.5,194C 76.7642,185.309 87.7642,184.309 99.5,191C 109.5,201 119.5,211 129.5,221C 133.302,223.828 137.302,224.161 141.5,222C 186.5,177 231.5,132 276.5,87C 287.062,80.8095 297.395,81.1429 307.5,88C 321.167,101.667 334.833,115.333 348.5,129C 355.336,133.168 362.336,133.501 369.5,130C 396.333,103.167 423.167,76.3333 450,49.5C 451.522,45.8262 451.188,42.1595 449,38.5C 444.667,34.1667 440.333,29.8333 436,25.5C 435.333,24.5 435.333,23.5 436,22.5C 450.885,20.4762 465.718,18.8095 480.5,17.5 Z"/></g>
<g><path style="opacity:0.943" fill="#6b7b8b" d="M 511.5,242.5 C 511.5,251.167 511.5,259.833 511.5,268.5C 507.402,290.53 496.736,308.696 479.5,323C 498.495,327.48 505.995,339.314 502,358.5C 500.753,361.329 499.253,363.995 497.5,366.5C 505.5,377.833 505.5,389.167 497.5,400.5C 505.5,411.833 505.5,423.167 497.5,434.5C 505.493,445.872 505.493,457.205 497.5,468.5C 505.323,479.725 505.49,491.059 498,502.5C 494.118,506.571 489.618,509.571 484.5,511.5C 445.5,511.5 406.5,511.5 367.5,511.5C 351.496,504.485 345.996,492.485 351,475.5C 351.883,472.898 353.383,470.731 355.5,469C 346.66,457.944 346.327,446.61 354.5,435C 346.562,423.522 346.562,412.022 354.5,400.5C 346.551,389.016 346.551,377.516 354.5,366C 345.638,351.97 347.305,339.304 359.5,328C 363.814,325.34 368.481,323.673 373.5,323C 345.428,299.455 335.262,269.622 343,233.5C 359.295,186.762 392.128,165.929 441.5,171C 480.239,179.904 503.572,203.738 511.5,242.5 Z M 420.5,187.5 C 456.997,187.646 480.83,204.979 492,239.5C 497.352,268.117 488.852,291.617 466.5,310C 438.92,328.249 411.587,327.916 384.5,309C 359.579,286.817 352.746,259.984 364,228.5C 375.753,204.893 394.586,191.226 420.5,187.5 Z M 372.5,341.5 C 408.502,341.333 444.502,341.5 480.5,342C 487.385,347.465 487.052,352.465 479.5,357C 443.833,357.667 408.167,357.667 372.5,357C 367.776,354.565 366.276,350.731 368,345.5C 369.397,343.93 370.897,342.596 372.5,341.5 Z M 372.5,375.5 C 408.168,375.333 443.835,375.5 479.5,376C 487.5,381 487.5,386 479.5,391C 443.833,391.667 408.167,391.667 372.5,391C 367.776,388.565 366.276,384.731 368,379.5C 369.397,377.93 370.897,376.596 372.5,375.5 Z M 372.5,409.5 C 408.168,409.333 443.835,409.5 479.5,410C 487.052,414.535 487.385,419.535 480.5,425C 444.5,425.667 408.5,425.667 372.5,425C 367.776,422.565 366.276,418.731 368,413.5C 369.397,411.93 370.897,410.596 372.5,409.5 Z M 373.5,443.5 C 408.835,443.333 444.168,443.5 479.5,444C 487.069,448.584 487.402,453.584 480.5,459C 444.167,459.667 407.833,459.667 371.5,459C 365.19,453.056 365.857,447.889 373.5,443.5 Z M 373.5,477.5 C 408.502,477.333 443.502,477.5 478.5,478C 484.842,480.183 486.675,484.35 484,490.5C 483.097,491.701 481.931,492.535 480.5,493C 444.167,493.667 407.833,493.667 371.5,493C 365.171,487.099 365.838,481.932 373.5,477.5 Z"/></g>
<g><path style="opacity:0.929" fill="#6b7b8b" d="M 424.5,203.5 C 431.645,203.642 435.645,207.309 436.5,214.5C 445.466,217.919 449.632,224.253 449,233.5C 445.634,238.609 441.134,239.776 435.5,237C 433.461,234.626 431.128,232.626 428.5,231C 420.841,230.329 417.674,233.829 419,241.5C 419.833,243.667 421.333,245.167 423.5,246C 440.678,246.68 450.345,255.514 452.5,272.5C 452.152,283.872 446.819,291.872 436.5,296.5C 434.886,305.297 429.886,308.463 421.5,306C 418.038,303.761 416.705,300.594 417.5,296.5C 409.51,294.51 404.51,289.51 402.5,281.5C 403.778,274.062 408.112,271.228 415.5,273C 417.711,274.721 419.711,276.721 421.5,279C 428.163,281.668 432.497,279.502 434.5,272.5C 433.995,269.812 432.662,267.645 430.5,266C 408.723,264.564 398.889,253.064 401,231.5C 403.352,222.649 408.852,216.983 417.5,214.5C 417.025,208.987 419.358,205.32 424.5,203.5 Z"/></g>
<g><path style="opacity:0.943" fill="#6b7b8b" d="M 314.5,511.5 C 275.167,511.5 235.833,511.5 196.5,511.5C 182.614,505.405 176.781,494.738 179,479.5C 180.181,475.637 182.014,472.137 184.5,469C 176.505,457.628 176.505,446.295 184.5,435C 176.7,423.625 176.533,412.125 184,400.5C 189.014,395.168 195.181,392.001 202.5,391C 175.252,367.926 165.085,338.76 172,303.5C 181.902,268.264 204.736,246.764 240.5,239C 283.19,234.091 314.356,250.591 334,288.5C 346.63,320.758 342.63,350.758 322,378.5C 317.801,383.034 313.301,387.201 308.5,391C 328.298,395.484 335.798,407.65 331,427.5C 329.877,430.249 328.377,432.749 326.5,435C 332.067,441.857 333.9,449.69 332,458.5C 330.819,462.363 328.986,465.863 326.5,469C 333.893,479.465 334.393,490.298 328,501.5C 324.198,505.963 319.698,509.297 314.5,511.5 Z M 254.5,255.5 C 296.255,259.422 319.255,282.255 323.5,324C 320.864,358.631 302.864,380.631 269.5,390C 233.061,395.033 207.228,380.866 192,347.5C 181.42,309.549 193.254,281.049 227.5,262C 236.31,258.476 245.31,256.31 254.5,255.5 Z M 202.5,409.5 C 237.835,409.333 273.168,409.5 308.5,410C 314.45,412.477 315.95,416.643 313,422.5C 312.097,423.701 310.931,424.535 309.5,425C 273.5,425.667 237.5,425.667 201.5,425C 196.465,421.987 195.298,417.82 198,412.5C 199.652,411.601 201.152,410.601 202.5,409.5 Z M 202.5,443.5 C 237.835,443.333 273.168,443.5 308.5,444C 314.453,446.525 315.953,450.691 313,456.5C 312.097,457.701 310.931,458.535 309.5,459C 273.5,459.667 237.5,459.667 201.5,459C 197.139,456.774 195.639,453.274 197,448.5C 198.406,446.256 200.239,444.59 202.5,443.5 Z M 203.5,477.5 C 238.168,477.333 272.835,477.5 307.5,478C 315.585,481.5 316.585,486.5 310.5,493C 273.833,493.667 237.167,493.667 200.5,493C 194.467,486.356 195.467,481.19 203.5,477.5 Z"/></g>
<g><path style="opacity:0.928" fill="#6b7b8b" d="M 251.5,272.5 C 259.736,270.944 264.403,274.277 265.5,282.5C 272.703,285.697 277.37,291.031 279.5,298.5C 277.793,306.52 273.127,309.02 265.5,306C 263.5,304 261.5,302 259.5,300C 255.334,297.749 251.834,298.583 249,302.5C 246.399,307.502 247.566,311.335 252.5,314C 269.948,314.785 279.615,323.785 281.5,341C 280.86,352.449 275.36,360.616 265,365.5C 263.485,374.171 258.651,377.004 250.5,374C 247.38,371.592 246.047,368.426 246.5,364.5C 235.692,361.844 231.192,355.178 233,344.5C 237.349,339.805 242.182,339.305 247.5,343C 249.789,347.644 253.456,349.311 258.5,348C 264.729,343.829 265.062,339.163 259.5,334C 238.221,332.73 228.388,321.563 230,300.5C 232.481,292.186 237.648,286.186 245.5,282.5C 246.003,278.145 248.003,274.811 251.5,272.5 Z"/></g>
<g><path style="opacity:0.943" fill="#6b7b8b" d="M 143.5,511.5 C 104.5,511.5 65.5,511.5 26.5,511.5C 8.9232,503.626 3.75653,490.626 11,472.5C 15.9922,465.169 22.8256,460.669 31.5,459C 14.3396,445.016 3.67293,427.183 -0.5,405.5C -0.5,396.5 -0.5,387.5 -0.5,378.5C 5.87629,345.945 24.543,323.445 55.5,311C 100.875,298.561 136.041,312.061 161,351.5C 175.88,384.075 173.213,415.075 153,444.5C 148.833,450 144,454.833 138.5,459C 153.182,462.018 161.182,471.018 162.5,486C 161.183,498.454 154.85,506.954 143.5,511.5 Z M 75.5,324.5 C 109.468,322.559 133.635,336.892 148,367.5C 158.814,403.736 148.314,431.903 116.5,452C 80.1366,467.286 50.3033,459.119 27,427.5C 10.1549,394.066 15.3216,364.566 42.5,339C 52.4378,331.529 63.4378,326.696 75.5,324.5 Z M 32.5,477.5 C 67.5016,477.333 102.502,477.5 137.5,478C 145.267,482.242 145.933,487.242 139.5,493C 103.167,493.667 66.8333,493.667 30.5,493C 23.4797,486.901 24.1464,481.734 32.5,477.5 Z"/></g>
<g><path style="opacity:0.931" fill="#6b7b8b" d="M 81.5,340.5 C 89.3995,339.237 93.5661,342.57 94,350.5C 101.523,353.517 106.356,358.85 108.5,366.5C 107.212,374.98 102.545,377.48 94.5,374C 91.8856,370.71 88.7189,368.21 85,366.5C 79.4531,367.617 76.7864,370.951 77,376.5C 77.6853,379.057 79.1853,380.891 81.5,382C 102.755,383.913 112.255,395.413 110,416.5C 107.116,424.218 101.95,429.885 94.5,433.5C 93.6582,441.514 89.3249,444.681 81.5,443C 77.5292,441.12 75.3626,437.953 75,433.5C 67.3224,430.49 62.489,424.99 60.5,417C 62.8072,409.014 67.8072,406.681 75.5,410C 80.1466,418.354 85.6466,419.188 92,412.5C 93.3785,408.102 92.2118,404.602 88.5,402C 66.2312,400.259 56.7312,388.425 60,366.5C 62.6028,358.898 67.6028,353.564 75,350.5C 75.444,345.935 77.6107,342.602 81.5,340.5 Z"/></g>
</svg>
